<?xml version="1.0" encoding="iso-8859-1"?>
<!-- Generator: Adobe Illustrator 19.0.0, SVG Export Plug-In . SVG Version: 6.00 Build 0)  -->
<svg version="1.1" id="Capa_1" xmlns="http://www.w3.org/2000/svg" xmlns:xlink="http://www.w3.org/1999/xlink" x="0px" y="0px"
	 viewBox="0 0 512 512" style="enable-background:new 0 0 512 512;" xml:space="preserve">
<path style="fill:#73BCFF;" d="M361,45v151l-180,69.3l-15,5.7h-24.901L60,331v-60H45c-24.901,0-45-20.101-45-45V45
	C0,20.099,20.099,0,45,0h271C340.901,0,361,20.099,361,45z"/>
<path style="fill:#3AAAFF;" d="M361,45v151l-180,69.3V0h135C340.901,0,361,20.099,361,45z"/>
<rect x="60" y="60" style="fill:#FAECD8;" width="241" height="30"/>
<rect x="271" y="121" style="fill:#F4D7AF;" width="30" height="30"/>
<rect x="60" y="121" style="fill:#FAECD8;" width="181" height="30"/>
<g>
	<rect x="181" y="121" style="fill:#F4D7AF;" width="60" height="30"/>
	<rect x="181" y="60" style="fill:#F4D7AF;" width="120" height="30"/>
</g>
<path style="fill:#FF9F00;" d="M467,181H196c-24.901,0-45,20.099-45,45v180c0,24.899,20.099,45,45,45h174.901L452,512v-61h15
	c24.901,0,45-20.101,45-45V226C512,201.099,491.901,181,467,181z"/>
<path style="fill:#FF7816;" d="M512,226v180c0,24.899-20.099,45-45,45h-15v61l-81.099-61H331V181h136
	C491.901,181,512,201.099,512,226z"/>
<rect x="422" y="331" style="fill:#F4D7AF;" width="30" height="30"/>
<g>
	<rect x="211" y="271" style="fill:#FAECD8;" width="241" height="30"/>
	<rect x="211" y="331" style="fill:#FAECD8;" width="181" height="30"/>
</g>
<g>
	<rect x="331" y="331" style="fill:#F4D7AF;" width="61" height="30"/>
	<rect x="331" y="271" style="fill:#F4D7AF;" width="121" height="30"/>
</g>
<g>
</g>
<g>
</g>
<g>
</g>
<g>
</g>
<g>
</g>
<g>
</g>
<g>
</g>
<g>
</g>
<g>
</g>
<g>
</g>
<g>
</g>
<g>
</g>
<g>
</g>
<g>
</g>
<g>
</g>
</svg>
